<?xml version="1.0" encoding="iso-8859-1"?>
<!-- Generator: Adobe Illustrator 19.0.0, SVG Export Plug-In . SVG Version: 6.00 Build 0)  -->
<svg version="1.1" id="Capa_1" xmlns="http://www.w3.org/2000/svg" xmlns:xlink="http://www.w3.org/1999/xlink" x="0px" y="0px"
	 viewBox="0 0 496.485 496.485" style="enable-background:new 0 0 496.485 496.485;" xml:space="preserve">
<rect x="7.758" y="93.091" style="fill:#FDBF5E;" width="480.97" height="341.333"/>
<path style="fill:#193651;" d="M488.727,442.958H7.758C3.103,442.958,0,439.855,0,435.2V93.091c0-4.655,3.103-7.758,7.758-7.758
	h480.97c4.655,0,7.758,3.103,7.758,7.758v341.333C496.485,439.079,493.382,442.958,488.727,442.958z M15.515,427.442H480.97V100.848
	H15.515V427.442z"/>
<path style="fill:#FFFFFF;" d="M283.152,61.285c-19.394,0-34.909,23.273-34.909,42.667v330.473
	c0-19.394,15.515-42.667,34.909-42.667h168.339V61.285H283.152z"/>
<path style="fill:#193651;" d="M248.242,442.958c-4.655,0-7.758-3.103-7.758-7.758V104.727c0-23.273,18.618-50.424,42.667-50.424
	h168.339c4.655,0,7.758,3.103,7.758,7.758v330.473c0,4.655-3.103,7.758-7.758,7.758H283.152c-14.739,0-27.152,19.394-27.152,34.909
	C256,439.079,252.897,442.958,248.242,442.958z M283.152,69.042c-14.739,0-27.152,19.394-27.152,34.909v293.236
	C262.982,389.43,273.067,384,283.152,384h160.582V69.042H283.152z"/>
<path style="fill:#E1E6E9;" d="M279.273,96.97c0-2.327,1.552-3.879,3.879-3.879h137.309v268.412H283.152c-1.552,0-2.327,0-3.879,0
	V96.97z"/>
<path style="fill:#FFFFFF;" d="M213.333,61.285c19.394,0,34.909,23.273,34.909,42.667v330.473c0-19.394-15.515-42.667-34.909-42.667
	H44.994V61.285H213.333z"/>
<path style="fill:#193651;" d="M248.242,442.958c-4.655,0-7.758-3.103-7.758-7.758c0-15.515-13.188-34.909-27.152-34.909H44.994
	c-4.655,0-7.758-3.103-7.758-7.758V61.285c0-4.655,3.103-7.758,7.758-7.758h168.339c24.048,0,42.667,27.152,42.667,50.424v330.473
	C256,439.079,252.897,442.958,248.242,442.958z M52.752,384h160.582c10.085,0,20.17,5.43,27.152,13.188V104.727
	c0-15.515-13.188-34.909-27.152-34.909H52.752V384z"/>
<path style="fill:#E1E6E9;" d="M217.212,361.503c-1.552,0-2.327,0-3.879,0H76.024V92.315h137.309c2.327,0,3.879,1.552,3.879,3.879
	V361.503z"/>
<path style="fill:#2EA2DB;" d="M217.212,183.079V96.97c0-2.327-1.552-3.879-3.879-3.879H76.024v89.988H217.212z"/>
<polygon style="fill:#FFFFFF;" points="131.103,117.139 131.103,158.255 162.909,138.085 "/>
<g>
	<rect x="101.624" y="307.2" style="fill:#193651;" width="15.515" height="15.515"/>
	<rect x="138.861" y="307.2" style="fill:#193651;" width="15.515" height="15.515"/>
	<rect x="176.873" y="307.2" style="fill:#193651;" width="15.515" height="15.515"/>
	<rect x="304.097" y="125.673" style="fill:#193651;" width="91.539" height="15.515"/>
	<rect x="304.097" y="170.667" style="fill:#193651;" width="91.539" height="15.515"/>
	<rect x="304.097" y="216.436" style="fill:#193651;" width="91.539" height="15.515"/>
	<rect x="304.097" y="261.43" style="fill:#193651;" width="91.539" height="15.515"/>
	<rect x="304.097" y="307.2" style="fill:#193651;" width="91.539" height="15.515"/>
	<rect x="100.848" y="216.436" style="fill:#193651;" width="91.539" height="15.515"/>
	<rect x="100.848" y="261.43" style="fill:#193651;" width="91.539" height="15.515"/>
</g>
<g>
</g>
<g>
</g>
<g>
</g>
<g>
</g>
<g>
</g>
<g>
</g>
<g>
</g>
<g>
</g>
<g>
</g>
<g>
</g>
<g>
</g>
<g>
</g>
<g>
</g>
<g>
</g>
<g>
</g>
</svg>
