<?xml version="1.0" encoding="iso-8859-1"?>
<!-- Generator: Adobe Illustrator 19.0.0, SVG Export Plug-In . SVG Version: 6.00 Build 0)  -->
<svg version="1.1" id="Capa_1" xmlns="http://www.w3.org/2000/svg" xmlns:xlink="http://www.w3.org/1999/xlink" x="0px" y="0px"
	 viewBox="0 0 504.242 504.242" style="enable-background:new 0 0 504.242 504.242;" xml:space="preserve">
<circle style="fill:#FDBF5E;" cx="252.121" cy="238.158" r="238.158"/>
<rect x="135.758" y="154.376" style="fill:#E1E6E9;" width="233.503" height="122.57"/>
<path style="fill:#193651;" d="M368.485,284.703H135.758c-4.655,0-7.758-3.103-7.758-7.758v-122.57c0-4.655,3.103-7.758,7.758-7.758
	h232.727c4.655,0,7.758,3.103,7.758,7.758v122.57C376.242,280.824,373.139,284.703,368.485,284.703z M143.515,269.188h217.212
	V162.133H143.515V269.188z"/>
<rect x="164.461" y="183.079" style="fill:#FFFFFF;" width="175.321" height="65.164"/>
<polygon style="fill:#E1E6E9;" points="252.121,43.442 70.594,129.552 252.121,214.885 433.648,129.552 "/>
<path style="fill:#193651;" d="M252.121,222.642c-0.776,0-2.327,0-3.103-0.776L67.491,136.533c-3.103-1.552-4.655-3.879-4.655-6.982
	c0-3.103,1.552-5.43,4.655-6.982l181.527-85.333c2.327-0.776,4.655-0.776,6.982,0l181.527,85.333
	c3.103,1.552,4.655,3.879,4.655,6.982c0,3.103-1.552,5.43-4.655,6.982L256,221.867C254.448,222.642,252.897,222.642,252.121,222.642
	z M88.436,129.552l163.685,76.8l163.685-76.8L252.121,51.976L88.436,129.552z"/>
<polygon style="fill:#FFFFFF;" points="138.085,129.552 252.121,75.248 366.158,129.552 252.121,183.079 "/>
<path style="fill:#193651;" d="M83.782,241.261c-4.655,0-7.758-3.103-7.758-7.758v-97.745c0-4.655,3.103-7.758,7.758-7.758
	s7.758,3.103,7.758,7.758v98.521C91.539,238.158,88.436,241.261,83.782,241.261z"/>
<rect x="55.855" y="276.945" style="fill:#4FBF9F;" width="392.533" height="219.539"/>
<path style="fill:#193651;" d="M448.388,269.188H55.855c-4.655,0-7.758,3.103-7.758,7.758v219.539c0,4.655,3.103,7.758,7.758,7.758
	h392.533c4.655,0,7.758-3.103,7.758-7.758V276.945C456.145,272.291,453.042,269.188,448.388,269.188z M440.63,488.727H63.612
	V284.703H440.63V488.727z"/>
<path style="fill:#FFFFFF;" d="M384,305.648H120.242c0,20.17-16.291,35.685-35.685,35.685v89.988
	c20.17,0,35.685,16.291,35.685,35.685H384c0-20.17,16.291-35.685,35.685-35.685v-89.988C399.515,341.333,384,325.818,384,305.648z"
	/>
<ellipse style="fill:#4FBF9F;" cx="252.121" cy="386.327" rx="48.873" ry="63.612"/>
<circle style="fill:#FFFFFF;" cx="363.055" cy="386.327" r="17.842"/>
<path style="fill:#193651;" d="M363.055,411.927c-13.964,0-25.6-11.636-25.6-25.6c0-13.964,11.636-25.6,25.6-25.6
	c13.964,0,25.6,11.636,25.6,25.6C387.879,400.291,377.018,411.927,363.055,411.927z M363.055,377.018
	c-5.43,0-10.085,4.655-10.085,10.085s4.655,10.085,10.085,10.085c5.43,0,10.085-4.655,10.085-10.085
	C372.364,380.897,368.485,377.018,363.055,377.018z"/>
<circle style="fill:#FFFFFF;" cx="141.188" cy="386.327" r="17.842"/>
<g>
	<path style="fill:#193651;" d="M141.188,411.927c-13.964,0-25.6-11.636-25.6-25.6c0-13.964,11.636-25.6,25.6-25.6
		c13.964,0,25.6,11.636,25.6,25.6C166.788,400.291,155.152,411.927,141.188,411.927z M141.188,377.018
		c-5.43,0-10.085,4.655-10.085,10.085s4.655,10.085,10.085,10.085c5.43,0,10.085-4.655,10.085-10.085
		C151.273,380.897,146.618,377.018,141.188,377.018z"/>
	<path style="fill:#193651;" d="M250.57,419.685v-6.206c-6.982-0.776-13.964-3.879-19.394-8.533l6.206-6.982
		c4.655,3.879,9.309,6.206,13.964,6.982V389.43c-6.206-1.552-10.085-3.103-13.188-5.43c-3.103-2.327-3.879-6.206-3.879-10.085
		c0-4.655,1.552-8.533,4.655-11.636c3.103-3.103,7.758-4.655,12.412-4.655v-3.879h5.43v3.879c6.206,0.776,11.636,2.327,16.291,6.206
		l-5.43,6.982c-3.879-2.327-6.982-3.879-11.636-4.655v14.739l0,0c6.206,1.552,10.861,3.103,13.188,6.206
		c3.103,2.327,4.655,6.206,4.655,10.861c0,4.655-1.552,8.533-4.655,11.636c-3.103,3.103-7.758,4.655-13.188,4.655v5.43
		L250.57,419.685L250.57,419.685z M244.364,368.485c-1.552,1.552-2.327,2.327-2.327,4.655c0,1.552,0.776,3.103,1.552,3.879
		c0.776,0.776,3.103,2.327,6.206,3.103v-13.964C248.242,366.158,245.915,366.933,244.364,368.485z M261.43,403.394
		c1.552-1.552,2.327-3.103,2.327-4.655s-0.776-3.103-1.552-4.655c-1.552-0.776-3.103-2.327-6.206-3.103v14.739
		C258.327,404.945,259.879,404.17,261.43,403.394z"/>
	<rect x="205.576" y="121.794" style="fill:#193651;" width="15.515" height="14.739"/>
	<rect x="244.364" y="121.794" style="fill:#193651;" width="15.515" height="14.739"/>
	<rect x="283.152" y="121.794" style="fill:#193651;" width="15.515" height="14.739"/>
</g>
<g>
</g>
<g>
</g>
<g>
</g>
<g>
</g>
<g>
</g>
<g>
</g>
<g>
</g>
<g>
</g>
<g>
</g>
<g>
</g>
<g>
</g>
<g>
</g>
<g>
</g>
<g>
</g>
<g>
</g>
</svg>
