<?xml version="1.0" encoding="iso-8859-1"?>
<!-- Generator: Adobe Illustrator 19.0.0, SVG Export Plug-In . SVG Version: 6.00 Build 0)  -->
<svg version="1.1" id="Capa_1" xmlns="http://www.w3.org/2000/svg" xmlns:xlink="http://www.w3.org/1999/xlink" x="0px" y="0px"
	 viewBox="0 0 496.485 496.485" style="enable-background:new 0 0 496.485 496.485;" xml:space="preserve">
<circle style="fill:#FDBF5E;" cx="248.242" cy="248.242" r="248.242"/>
<circle style="fill:#F16051;" cx="248.242" cy="374.691" r="64.388"/>
<path style="fill:#193651;" d="M248.242,446.836c-39.564,0-72.145-32.582-72.145-72.145s32.582-72.145,72.145-72.145
	s72.145,32.582,72.145,72.145S287.806,446.836,248.242,446.836z M248.242,318.061c-31.03,0-56.63,25.6-56.63,56.63
	s25.6,56.63,56.63,56.63s56.63-25.6,56.63-56.63S279.273,318.061,248.242,318.061z"/>
<path style="fill:#FFFFFF;" d="M437.527,374.691c-77.576-67.491-60.509-157.479-60.509-157.479
	c0-138.861-128.776-135.758-128.776-135.758s-128.776-3.103-128.776,135.758c0,0,16.291,89.988-60.509,157.479H437.527z"/>
<path style="fill:#193651;" d="M437.527,382.448H58.958c-3.103,0-6.206-2.327-6.982-4.655c-0.776-3.103,0-6.206,2.327-8.533
	c72.921-63.612,58.182-149.721,58.182-150.497c0-0.776,0-0.776,0-1.552c0-113.261,85.333-142.739,135.758-142.739h0.776h0.776
	c50.424,0,135.758,30.255,135.758,142.739c0,0.776,0,0.776,0,1.552c0,0.776-14.739,86.885,58.182,150.497
	c2.327,2.327,3.103,5.43,2.327,8.533C443.733,380.121,440.63,382.448,437.527,382.448z M78.352,366.933h339.782
	c-61.285-65.164-50.424-141.964-48.873-150.497c0-123.345-107.83-127.224-120.242-127.224h-0.776l0,0
	C235.055,89.212,128,93.091,128,216.436C128.776,224.97,139.636,301.77,78.352,366.933z"/>
<path style="fill:#E1E6E9;" d="M384,348.315c-41.891-55.079-35.685-119.467-33.358-133.43
	c-0.776-102.4-84.558-107.055-101.624-107.055h-0.776h-0.776c-17.067,0-100.848,5.43-101.624,107.055
	c2.327,13.964,7.758,78.352-33.358,133.43H384z"/>
<g>
	<path style="fill:#193651;" d="M248.242,89.212c-20.945,0-38.012-17.067-38.012-38.012s17.067-38.012,38.012-38.012
		s38.012,17.067,38.012,38.012S269.188,89.212,248.242,89.212z M248.242,28.703c-12.412,0-22.497,10.085-22.497,22.497
		s10.085,22.497,22.497,22.497c12.412,0,22.497-10.085,22.497-22.497S260.655,28.703,248.242,28.703z"/>
	<path style="fill:#193651;" d="M439.855,306.424c-3.103-3.103-3.103-7.758,0-10.861c30.255-30.255,30.255-79.127,0-109.382
		c-3.103-3.103-3.103-7.758,0-10.861c3.103-3.103,7.758-3.103,10.861,0c36.461,36.461,36.461,95.418,0,131.103
		C447.612,309.527,442.958,309.527,439.855,306.424z"/>
	<path style="fill:#193651;" d="M414.255,273.842c-3.103-3.103-3.103-7.758,0-10.861c5.43-5.43,9.309-13.188,9.309-21.721
		c0-8.533-3.103-16.291-9.309-21.721c-3.103-3.103-3.103-7.758,0-10.861c3.103-3.103,7.758-3.103,10.861,0
		c8.533,8.533,13.188,20.17,13.188,32.582s-4.655,24.048-13.188,32.582C422.788,276.945,417.358,276.945,414.255,273.842z"/>
	<path style="fill:#193651;" d="M45.77,306.424c-17.842-17.842-27.152-41.115-27.152-65.939s9.309-48.097,27.152-65.939
		c3.103-3.103,7.758-3.103,10.861,0c3.103,3.103,3.103,7.758,0,10.861c-14.739,14.739-22.497,34.133-22.497,54.303
		c0,20.945,7.758,40.339,22.497,54.303c3.103,3.103,3.103,7.758,0,10.861C53.527,309.527,48.873,309.527,45.77,306.424z"/>
	<path style="fill:#193651;" d="M71.37,273.842c-8.533-8.533-13.188-20.17-13.188-32.582c0-12.412,4.655-24.048,13.188-32.582
		c3.103-3.103,7.758-3.103,10.861,0s3.103,7.758,0,10.861c-5.43,5.43-9.309,13.188-9.309,21.721c0,8.533,3.103,16.291,9.309,21.721
		c3.103,3.103,3.103,7.758,0,10.861C79.127,276.945,73.697,276.945,71.37,273.842z"/>
	<rect x="194.715" y="190.061" style="fill:#193651;" width="15.515" height="15.515"/>
	<rect x="240.485" y="190.061" style="fill:#193651;" width="15.515" height="15.515"/>
	<rect x="286.255" y="190.061" style="fill:#193651;" width="15.515" height="15.515"/>
</g>
<g>
</g>
<g>
</g>
<g>
</g>
<g>
</g>
<g>
</g>
<g>
</g>
<g>
</g>
<g>
</g>
<g>
</g>
<g>
</g>
<g>
</g>
<g>
</g>
<g>
</g>
<g>
</g>
<g>
</g>
</svg>
