<?xml version="1.0" encoding="iso-8859-1"?>
<!-- Generator: Adobe Illustrator 19.0.0, SVG Export Plug-In . SVG Version: 6.00 Build 0)  -->
<svg version="1.1" id="Capa_1" xmlns="http://www.w3.org/2000/svg" xmlns:xlink="http://www.w3.org/1999/xlink" x="0px" y="0px"
	 viewBox="0 0 496.485 496.485" style="enable-background:new 0 0 496.485 496.485;" xml:space="preserve">
<circle style="fill:#E1E6E9;" cx="248.218" cy="255.224" r="241.261"/>
<path style="fill:#4FBF9F;" d="M251.321,446.061L251.321,446.061C146.594,446.061,61.26,360.727,61.26,256l0,0
	c0-104.727,85.333-190.061,190.061-190.061l0,0c104.727,0,190.061,85.333,190.061,190.061l0,0
	C440.606,361.503,356.048,446.061,251.321,446.061z"/>
<path style="fill:#193651;" d="M251.321,453.818c-108.606,0-197.042-88.436-197.042-197.042S142.715,59.733,251.321,59.733
	s197.042,88.436,197.042,197.042C448.363,365.382,359.927,453.818,251.321,453.818z M251.321,74.473
	c-100.848,0-182.303,81.455-182.303,182.303s81.455,182.303,182.303,182.303s182.303-81.455,182.303-182.303
	S351.394,74.473,251.321,74.473z"/>
<path style="fill:#FFFFFF;" d="M251.321,416.582c-87.661,0-159.806-71.37-159.806-159.806S162.885,96.97,251.321,96.97
	c87.661,0,159.806,71.37,159.806,159.806S338.982,416.582,251.321,416.582z"/>
<path style="fill:#FDBF5E;" d="M460.776,43.442c-27.151-27.927-72.145-27.927-99.297,0l100.073,100.073
	C488.703,115.588,488.703,71.37,460.776,43.442z"/>
<path style="fill:#193651;" d="M466.206,38.012c-14.739-14.739-34.133-22.497-55.079-22.497c-20.945,0-40.339,7.758-55.079,22.497
	c-3.103,3.103-3.103,7.758,0,10.861l100.073,100.073c1.552,1.552,3.103,2.327,5.43,2.327c1.552,0,3.879-0.776,5.43-2.327
	c14.739-14.739,23.273-34.133,22.497-55.079C489.479,72.145,480.945,52.752,466.206,38.012z M460.776,132.655l-88.436-89.212
	c10.861-8.533,24.824-13.188,38.788-13.188c17.067,0,32.582,6.206,44.218,18.618c11.636,11.636,18.618,27.927,18.618,44.218
	C473.964,107.83,469.309,121.018,460.776,132.655z"/>
<path style="fill:#FFFFFF;" d="M397.164,47.321c4.655-1.552,9.309-2.327,13.964-2.327c13.188,0,24.824,4.655,34.133,13.964
	c13.188,13.188,17.067,31.806,11.636,48.097L397.164,47.321z"/>
<path style="fill:#FDBF5E;" d="M35.66,51.2c27.152-27.927,72.145-27.927,99.297,0L35.66,150.497
	C7.733,123.345,7.733,78.352,35.66,51.2z"/>
<path style="fill:#193651;" d="M140.388,45.77c-14.739-14.739-34.133-23.273-55.079-23.273S44.97,30.255,30.23,44.994
	c-30.255,30.255-30.255,79.903,0,110.158c1.552,1.552,3.103,2.327,5.43,2.327c1.552,0,3.879-0.776,5.43-2.327l99.297-98.521
	C143.491,53.527,143.491,48.873,140.388,45.77z M35.66,139.636c-19.394-24.824-17.842-60.509,4.655-83.782
	c12.412-11.636,27.927-17.842,44.994-17.842c13.964,0,27.927,4.655,38.788,13.188L35.66,139.636z"/>
<path style="fill:#FFFFFF;" d="M39.539,114.812c-4.655-16.291-0.776-34.909,11.636-48.097c9.309-9.309,20.945-13.964,34.133-13.964
	c4.655,0,9.309,0.776,13.964,2.327L39.539,114.812z"/>
<g>
	<path style="fill:#193651;" d="M361.479,469.333l-24.824-44.218c-2.327-3.879-6.982-4.655-10.085-3.103
		c-3.879,2.327-4.655,6.982-3.103,10.085l24.824,44.218c1.552,2.327,3.879,3.879,6.206,3.879c1.552,0,2.327,0,3.879-0.776
		C362.254,477.867,363.806,473.212,361.479,469.333z"/>
	<path style="fill:#193651;" d="M173.745,424.339c-3.879-2.327-8.533-0.776-10.085,3.103l-24.824,44.218
		c-2.327,3.879-0.776,8.533,3.103,10.085c1.552,0.776,2.327,0.776,3.879,0.776c2.327,0,5.43-1.552,6.206-3.879l24.824-44.218
		C179.176,430.545,177.624,425.891,173.745,424.339z"/>
	<path style="fill:#193651;" d="M383.976,128.776c-1.552,0-3.879-0.776-5.43-2.327c-3.103-3.103-3.103-7.758,0-10.861l27.927-27.927
		c3.103-3.103,7.758-3.103,10.861,0c3.103,3.103,3.103,7.758,0,10.861l-27.927,27.927C387.854,128,385.527,128.776,383.976,128.776z
		"/>
	<path style="fill:#193651;" d="M111.685,134.982c-1.552,0-3.879-0.776-5.43-2.327l-27.152-27.152C76,102.4,76,97.745,79.103,94.642
		s7.758-3.103,10.861,0l27.152,27.152c3.103,3.103,3.103,7.758,0,10.861C115.563,134.206,114.012,134.982,111.685,134.982z"/>
</g>
<g>
	<path style="fill:#193651;" d="M217.188,37.236l-16.291-26.376c-2.327-3.103-6.982-4.655-10.085-2.327
		c-3.879,2.327-4.655,6.982-2.327,10.861l16.291,26.376c2.327,3.879,6.982,4.655,10.085,2.327
		C218.739,45.77,219.515,41.115,217.188,37.236z"/>
	<path style="fill:#193651;" d="M251.321,41.891c-3.879,0-7.758-3.103-7.758-7.758V7.758c0-3.879,3.103-7.758,7.758-7.758
		c3.879,0,7.758,3.103,7.758,7.758v26.376C258.303,38.012,255.2,41.891,251.321,41.891z"/>
</g>
<path style="fill:#193651;" d="M287.006,48.097c-3.879-2.327-4.655-6.982-2.327-10.085l16.291-26.376
	c2.327-3.879,6.982-4.655,10.085-2.327c3.879,2.327,4.655,6.982,2.327,10.085L297.091,45.77
	C295.539,48.873,290.885,50.424,287.006,48.097z"/>
<g>
	<path style="fill:#CFD0D1;" d="M251.321,171.442c-5.43,0-9.309,3.879-9.309,9.309v74.473h18.618v-74.473
		C260.63,175.321,255.976,171.442,251.321,171.442z"/>
	<path style="fill:#CFD0D1;" d="M359.927,246.691H251.321v19.394h108.606c5.43,0,10.085-4.655,10.085-10.085
		C369.236,251.345,365.357,246.691,359.927,246.691z"/>
</g>
<path style="fill:#F16051;" d="M164.436,343.661c2.327,2.327,5.43,2.327,7.758,0l71.37-71.37l-7.758-7.758l-71.37,71.37
	C162.109,338.23,162.109,341.333,164.436,343.661z"/>
<g>
	<circle style="fill:#193651;" cx="251.321" cy="256.776" r="23.273"/>
	<rect x="243.564" y="112.485" style="fill:#193651;" width="14.739" height="14.739"/>
	<rect x="243.564" y="386.327" style="fill:#193651;" width="14.739" height="14.739"/>
</g>
<rect x="175.129" y="130.355" transform="matrix(-0.866 0.5 -0.5 -0.866 409.4087 165.7447)" style="fill:#193651;" width="14.739" height="14.739"/>
<rect x="311.8" y="367.959" transform="matrix(-0.8661 0.4999 -0.4999 -0.8661 783.2238 540.8458)" style="fill:#193651;" width="14.74" height="14.74"/>
<rect x="124.946" y="181.013" transform="matrix(-0.5 0.866 -0.866 -0.5 361.6184 167.9879)" style="fill:#193651;" width="14.739" height="14.739"/>
<g>
	
		<rect x="361.897" y="317.66" transform="matrix(-0.5001 0.866 -0.866 -0.5001 835.4003 167.7965)" style="fill:#193651;" width="14.74" height="14.74"/>
	<rect x="106.254" y="249.018" style="fill:#193651;" width="14.739" height="14.739"/>
	<rect x="380.873" y="249.018" style="fill:#193651;" width="14.739" height="14.739"/>
</g>
<rect x="124.669" y="317.488" transform="matrix(-0.8661 0.4999 -0.4999 -0.8661 408.7907 540.2075)" style="fill:#193651;" width="14.74" height="14.74"/>
<rect x="362.228" y="180.838" transform="matrix(-0.866 0.5001 -0.5001 -0.866 783.7786 166.3392)" style="fill:#193651;" width="14.739" height="14.739"/>
<rect x="175.084" y="367.773" transform="matrix(-0.4999 0.8661 -0.8661 -0.4999 598.5681 404.6537)" style="fill:#193651;" width="14.74" height="14.74"/>
<rect x="311.762" y="130.847" transform="matrix(-0.4999 0.8661 -0.8661 -0.4999 598.3705 -69.0852)" style="fill:#193651;" width="14.74" height="14.74"/>
<g>
</g>
<g>
</g>
<g>
</g>
<g>
</g>
<g>
</g>
<g>
</g>
<g>
</g>
<g>
</g>
<g>
</g>
<g>
</g>
<g>
</g>
<g>
</g>
<g>
</g>
<g>
</g>
<g>
</g>
</svg>
