<?xml version="1.0" encoding="iso-8859-1"?>
<!-- Generator: Adobe Illustrator 19.0.0, SVG Export Plug-In . SVG Version: 6.00 Build 0)  -->
<svg version="1.1" id="Capa_1" xmlns="http://www.w3.org/2000/svg" xmlns:xlink="http://www.w3.org/1999/xlink" x="0px" y="0px"
	 viewBox="0 0 496.485 496.485" style="enable-background:new 0 0 496.485 496.485;" xml:space="preserve">
<circle style="fill:#E1E6E9;" cx="248.242" cy="248.242" r="248.242"/>
<polygon style="fill:#FFFFFF;" points="248.242,129.552 76.024,207.127 76.024,207.127 76.024,207.127 76.024,207.127 
	76.024,207.127 248.242,284.703 420.461,207.127 "/>
<path style="fill:#193651;" d="M248.242,291.685c-0.776,0-2.327,0-3.103-0.776L72.921,213.333c-2.327-1.552-4.655-3.879-4.655-6.982
	c0-3.103,1.552-5.43,4.655-6.982l172.218-77.576c1.552-0.776,3.879-0.776,6.206,0l172.218,77.576
	c2.327,1.552,4.655,3.879,4.655,6.982c0,3.103-1.552,5.43-4.655,6.982l-172.218,77.576
	C250.57,291.685,249.018,291.685,248.242,291.685z M93.867,207.127l154.376,69.818l154.376-69.818l-154.376-69.818L93.867,207.127z"
	/>
<path style="fill:#FFFFFF;" d="M238.933,73.697c0-17.067,13.964-30.255,30.255-30.255h-122.57
	c-17.067,0-30.255,13.964-30.255,30.255c0,17.067,13.964,30.255,30.255,30.255h122.57
	C252.121,103.952,238.933,89.988,238.933,73.697z"/>
<path style="fill:#193651;" d="M269.188,110.933h-122.57c-20.945,0-38.012-17.067-38.012-38.012s17.067-38.012,38.012-38.012h122.57
	c3.879,0,7.758,3.103,7.758,7.758c0,3.879-3.103,7.758-7.758,7.758c-12.412,0-23.273,10.085-23.273,23.273S256,96.97,269.188,96.97
	c3.879,0,7.758,3.103,7.758,7.758C276.17,107.83,273.067,110.933,269.188,110.933z M146.618,50.424
	c-12.412,0-23.273,10.085-23.273,23.273S133.43,96.97,146.618,96.97h92.315c-4.655-6.206-7.758-13.964-7.758-23.273
	s3.103-16.291,7.758-23.273H146.618z"/>
<rect x="152.824" y="103.952" style="fill:#FDBF5E;" width="116.364" height="193.164"/>
<path style="fill:#193651;" d="M152.824,304.873c-2.327,0-3.879-0.776-5.43-2.327c-1.552-1.552-2.327-3.103-2.327-5.43V103.952
	c0-3.879,3.103-7.758,7.758-7.758h116.364c2.327,0,3.879,0.776,5.43,2.327c1.552,1.552,2.327,3.103,2.327,5.43v193.164
	c0,3.879-3.103,7.758-7.758,7.758H152.824z M159.806,110.933v178.424H261.43V110.933H159.806z"/>
<rect x="179.2" y="130.327" style="fill:#FFFFFF;" width="63.612" height="140.412"/>
<path style="fill:#F16051;" d="M146.618,297.115h6.206V103.952h-6.206c-17.067,0-30.255-13.964-30.255-30.255v193.164
	C116.364,283.927,129.552,297.115,146.618,297.115z"/>
<g>
	<path style="fill:#193651;" d="M152.824,304.873h-6.206c-20.945,0-38.012-17.067-38.012-38.012V73.697
		c0-3.879,3.103-7.758,7.758-7.758c3.879,0,7.758,3.103,7.758,7.758c0,12.412,10.085,23.273,23.273,23.273h6.206
		c3.879,0,7.758,3.103,7.758,7.758v193.164C159.806,301.77,156.703,304.873,152.824,304.873z M123.345,103.176v163.685
		c0,12.412,9.309,22.497,21.721,23.273V111.709C137.309,110.933,129.552,107.83,123.345,103.176z"/>
	<path style="fill:#193651;" d="M238.933,80.679h-88.436c-3.879,0-7.758-3.103-7.758-7.758c0-3.879,3.103-7.758,7.758-7.758h88.436
		c3.879,0,7.758,3.103,7.758,7.758C245.915,77.576,242.812,80.679,238.933,80.679z"/>
</g>
<rect x="302.545" y="117.139" style="fill:#4FBF9F;" width="76.024" height="157.479"/>
<path style="fill:#193651;" d="M378.57,282.376h-76.024c-2.327,0-3.879-0.776-5.43-2.327c-1.552-1.552-2.327-3.103-2.327-5.43
	V117.139c0-3.879,3.103-7.758,7.758-7.758l0,0h76.024c2.327,0,3.879,0.776,5.43,2.327c1.552,1.552,2.327,3.103,2.327,5.43v157.479
	C385.552,278.497,382.448,282.376,378.57,282.376z M310.303,267.636h61.285V124.897h-61.285V267.636z"/>
<g>
	<rect x="326.594" y="117.139" style="fill:#FFFFFF;" width="28.703" height="157.479"/>
	<polygon style="fill:#FFFFFF;" points="302.545,117.139 378.57,117.139 340.558,43.442 	"/>
</g>
<path style="fill:#193651;" d="M378.57,124.897L378.57,124.897h-76.024c-2.327,0-4.655-1.552-6.206-3.879s-1.552-4.655,0-6.982
	l38.012-73.697c1.552-2.327,3.879-3.879,6.206-3.879l0,0c3.103,0,5.43,1.552,6.206,3.879l38.012,74.473
	c1.552,2.327,0.776,4.655,0,6.982C383.224,123.345,380.897,124.897,378.57,124.897z M314.958,110.158h51.976l-25.6-50.424
	L314.958,110.158z"/>
<polygon style="fill:#2EA2DB;" points="248.242,453.042 76.024,375.467 76.024,207.127 248.242,284.703 "/>
<path style="fill:#193651;" d="M248.242,460.8c-0.776,0-2.327,0-3.103-0.776L72.921,382.449c-2.327-1.552-4.655-3.879-4.655-6.982
	V207.127c0-2.327,1.552-4.655,3.103-6.206c2.327-1.552,4.655-1.552,6.982-0.776l172.218,77.576c2.327,1.552,4.655,3.879,4.655,6.982
	v169.115c0,2.327-1.552,4.655-3.103,6.206C251.345,460.024,249.794,460.8,248.242,460.8z M83.782,370.812l156.703,71.37V289.358
	L83.006,218.764v152.048H83.782z"/>
<polygon style="fill:#FFFFFF;" points="102.4,358.4 102.4,247.467 221.867,301.77 221.867,412.703 "/>
<polygon style="fill:#2EA2DB;" points="248.242,453.042 420.461,375.467 420.461,207.127 248.242,284.703 "/>
<path style="fill:#193651;" d="M248.242,460.8c-1.552,0-3.103-0.776-3.879-1.552c-2.327-1.552-3.103-3.879-3.103-6.206V284.703
	c0-3.103,1.552-5.43,4.655-6.982l172.218-77.576c2.327-0.776,4.655-0.776,6.982,0.776c2.327,1.552,3.103,3.879,3.103,6.206v169.115
	c0,3.103-1.552,5.43-4.655,6.982L251.345,460.8C250.57,460.8,249.018,460.8,248.242,460.8z M256,289.358v152.824l157.479-70.594
	v-153.6L256,289.358z"/>
<polygon style="fill:#FFFFFF;" points="274.618,301.77 394.085,247.467 394.085,358.4 274.618,412.703 "/>
<polygon style="fill:#FDBF5E;" points="280.824,330.473 453.042,252.897 420.461,207.127 248.242,284.703 "/>
<path style="fill:#193651;" d="M274.618,335.127l-32.582-46.545c-1.552-1.552-1.552-3.879-0.776-6.206
	c0.776-2.327,2.327-3.879,3.879-4.655l172.218-77.576c3.103-1.552,6.982-0.776,9.309,2.327l32.582,46.545
	c1.552,1.552,1.552,3.879,0.776,6.206c-0.776,2.327-2.327,3.879-3.879,4.655l-172.218,77.576
	C280.048,339.006,276.17,338.23,274.618,335.127z M259.103,287.806l24.048,34.133l158.255-71.37l-24.048-34.133L259.103,287.806z"/>
<polygon style="fill:#FDBF5E;" points="214.885,330.473 42.667,252.897 75.248,207.127 246.691,284.703 "/>
<path style="fill:#193651;" d="M211.782,337.455L39.564,259.879c-2.327-0.776-3.879-2.327-3.879-4.655
	c-0.776-2.327,0-4.655,0.776-6.206l32.582-46.545c2.327-3.103,6.206-3.879,9.309-2.327l172.218,77.576
	c2.327,0.776,3.879,2.327,3.879,4.655c0.776,2.327,0,4.655-0.776,6.206l-32.582,46.545
	C218.764,338.23,214.885,339.006,211.782,337.455z M53.527,249.794l158.255,71.37l24.048-34.133L77.576,216.436L53.527,249.794z"/>
<rect x="293.287" y="357.686" transform="matrix(-0.9313 0.3642 -0.3642 -0.9313 713.3373 594.0378)" style="fill:#193651;" width="14.739" height="13.188"/>
<rect x="326.579" y="344.488" transform="matrix(-0.9313 0.3642 -0.3642 -0.9313 772.8267 556.424)" style="fill:#193651;" width="14.739" height="13.188"/>
<rect x="359.896" y="331.291" transform="matrix(-0.9313 0.3643 -0.3643 -0.9313 832.3851 518.7594)" style="fill:#193651;" width="14.74" height="13.188"/>
<rect x="188.843" y="357.106" transform="matrix(-0.3641 0.9314 -0.9314 -0.3641 606.0541 315.1671)" style="fill:#193651;" width="13.187" height="14.739"/>
<rect x="155.653" y="343.355" transform="matrix(-0.3641 0.9314 -0.9314 -0.3641 547.9721 327.3217)" style="fill:#193651;" width="13.187" height="14.739"/>
<rect x="122.149" y="330.32" transform="matrix(-0.3641 0.9314 -0.9314 -0.3641 490.1282 340.7433)" style="fill:#193651;" width="13.187" height="14.739"/>
<g>
</g>
<g>
</g>
<g>
</g>
<g>
</g>
<g>
</g>
<g>
</g>
<g>
</g>
<g>
</g>
<g>
</g>
<g>
</g>
<g>
</g>
<g>
</g>
<g>
</g>
<g>
</g>
<g>
</g>
</svg>
