<?xml version="1.0" encoding="iso-8859-1"?>
<!-- Generator: Adobe Illustrator 19.0.0, SVG Export Plug-In . SVG Version: 6.00 Build 0)  -->
<svg version="1.1" id="Capa_1" xmlns="http://www.w3.org/2000/svg" xmlns:xlink="http://www.w3.org/1999/xlink" x="0px" y="0px"
	 viewBox="0 0 496.485 496.485" style="enable-background:new 0 0 496.485 496.485;" xml:space="preserve">
<path style="fill:#E1E6E9;" d="M488.727,31.03c0-13.188-10.085-23.273-23.273-23.273H116.364c-13.188,0-23.273,10.085-23.273,23.273
	v231.952c0,13.188,10.085,23.273,23.273,23.273h349.091c13.188,0,23.273-10.085,23.273-23.273V31.03z"/>
<path style="fill:#193651;" d="M465.455,294.012H116.364c-17.067,0-31.03-13.964-31.03-31.03V31.03
	C85.333,13.964,99.297,0,116.364,0h349.091c17.067,0,31.03,13.964,31.03,31.03v231.952
	C496.485,280.048,482.521,294.012,465.455,294.012z M116.364,15.515c-8.533,0-15.515,6.982-15.515,15.515v231.952
	c0,8.533,6.982,15.515,15.515,15.515h349.091c8.533,0,15.515-6.982,15.515-15.515V31.03c0-8.533-6.982-15.515-15.515-15.515H116.364
	z"/>
<path style="fill:#FDBF5E;" d="M447.612,72.145c0-13.188-10.085-23.273-23.273-23.273H75.248c-13.188,0-23.273,10.085-23.273,23.273
	v231.952c0,13.188,10.085,23.273,23.273,23.273h349.091c13.188,0,23.273-10.085,23.273-23.273V72.145z"/>
<path style="fill:#193651;" d="M424.339,335.127H75.248c-17.067,0-31.03-13.964-31.03-31.03V72.145
	c0-17.067,13.964-31.03,31.03-31.03h349.091c17.067,0,31.03,13.964,31.03,31.03v231.952
	C455.37,321.164,441.406,335.127,424.339,335.127z M75.248,56.63c-8.533,0-15.515,6.982-15.515,15.515v231.952
	c0,8.533,6.982,15.515,15.515,15.515h349.091c8.533,0,15.515-6.982,15.515-15.515V72.145c0-8.533-6.982-15.515-15.515-15.515H75.248
	z"/>
<path style="fill:#2EA2DB;" d="M413.479,110.158c0-13.188-10.861-24.048-24.048-24.048H31.806
	c-13.188,0-24.048,10.861-24.048,24.048v260.655h405.721V110.158z"/>
<path style="fill:#193651;" d="M413.479,378.57H7.758c-4.655,0-7.758-3.103-7.758-7.758V110.158
	c0-17.842,13.964-31.806,31.806-31.806H389.43c17.842,0,31.806,13.964,31.806,31.806v260.655
	C421.236,374.691,417.358,378.57,413.479,378.57z M15.515,363.055h390.206V110.158c0-9.309-6.982-16.291-16.291-16.291H31.806
	c-9.309,0-16.291,6.982-16.291,16.291V363.055z"/>
<path style="fill:#FFFFFF;" d="M39.564,338.23V126.448c0-4.655,3.879-7.758,7.758-7.758h325.042c4.655,0,7.758,3.879,7.758,7.758
	v212.558H39.564V338.23z"/>
<circle style="fill:#F16051;" cx="210.23" cy="228.073" r="85.333"/>
<g>
	<path style="fill:#193651;" d="M210.23,321.164c-51.2,0-93.091-41.891-93.091-93.091s41.891-93.091,93.091-93.091
		s93.091,41.891,93.091,93.091S261.43,321.164,210.23,321.164z M210.23,150.497c-42.667,0-77.576,34.909-77.576,77.576
		s34.909,77.576,77.576,77.576s77.576-34.909,77.576-77.576S252.897,150.497,210.23,150.497z"/>
	<path style="fill:#193651;" d="M317.285,496.485H95.418c-4.655,0-7.758-3.103-7.758-7.758s3.103-7.758,7.758-7.758h221.091
		c4.655,0,7.758,3.103,7.758,7.758C325.042,493.382,321.164,496.485,317.285,496.485z"/>
</g>
<polygon style="fill:#CFD0D1;" points="119.467,488.727 293.236,488.727 255.224,435.976 157.479,435.976 "/>
<path style="fill:#193651;" d="M293.236,496.485h-173.77c-3.103,0-5.43-1.551-6.982-3.879c-1.552-2.327-0.776-5.43,0.776-7.758
	l38.012-52.752c1.552-2.327,3.879-3.103,6.206-3.103h97.745c2.327,0,4.655,1.552,6.206,3.103l38.012,52.752
	c1.552,2.327,2.327,5.43,0.776,7.758C299.442,494.933,296.339,496.485,293.236,496.485z M134.206,480.97h143.515l-27.152-37.236
	h-89.212L134.206,480.97z"/>
<path style="fill:#FFFFFF;" d="M7.758,370.812v41.891c0,13.188,10.861,24.048,24.048,24.048H389.43
	c13.188,0,24.048-10.861,24.048-24.048v-41.891H7.758z"/>
<path style="fill:#193651;" d="M389.43,443.733H31.806C13.964,443.733,0,429.77,0,411.927v-41.891c0-4.655,3.103-7.758,7.758-7.758
	h405.721c4.655,0,7.758,3.103,7.758,7.758v41.891C421.236,429.77,406.497,443.733,389.43,443.733z M15.515,378.57v34.133
	c0,9.309,6.982,16.291,16.291,16.291H389.43c9.309,0,16.291-6.982,16.291-16.291V378.57H15.515z"/>
<rect x="252.121" y="396.412" style="fill:#193651;" width="15.515" height="16.291"/>
<rect x="198.594" y="396.412" style="fill:#193651;" width="15.515" height="16.291"/>
<rect x="145.067" y="396.412" style="fill:#193651;" width="15.515" height="16.291"/>
<polygon style="fill:#FFFFFF;" points="186.958,188.509 186.958,267.636 251.345,228.073 "/>
<g>
</g>
<g>
</g>
<g>
</g>
<g>
</g>
<g>
</g>
<g>
</g>
<g>
</g>
<g>
</g>
<g>
</g>
<g>
</g>
<g>
</g>
<g>
</g>
<g>
</g>
<g>
</g>
<g>
</g>
</svg>
